<?xml version="1.0" encoding="UTF-8" standalone="no"?><!DOCTYPE svg PUBLIC "-//W3C//DTD SVG 1.1//EN" "http://www.w3.org/Graphics/SVG/1.1/DTD/svg11.dtd"><svg width="100%" height="100%" viewBox="0 0 4267 1067" version="1.1" xmlns="http://www.w3.org/2000/svg" xmlns:xlink="http://www.w3.org/1999/xlink" xml:space="preserve" xmlns:serif="http://www.serif.com/" style="fill-rule:evenodd;clip-rule:evenodd;stroke-linejoin:round;stroke-miterlimit:2;"><rect id="dark" x="0" y="0" width="4266.67" height="1066.67" style="fill:none;"/><clipPath id="_clip1"><rect x="0" y="0" width="4266.67" height="1066.67"/></clipPath><g clip-path="url(#_clip1)"><path d="M0,248.649l66.832,-0l0,293.41c-3.26,1.086 -7.607,2.309 -13.04,3.667c-5.434,1.359 -11.411,2.038 -17.931,2.038c-11.954,-0 -20.919,-2.445 -26.896,-7.335c-5.977,-4.891 -8.965,-12.497 -8.965,-22.821l-0,-268.959Zm66.832,54.607l-66.832,-0l0,-253.474c2.717,-1.086 6.928,-2.309 12.633,-3.667c5.705,-1.359 11.818,-2.038 18.338,-2.038c11.954,0 20.919,2.309 26.896,6.928c5.977,4.618 8.965,12.361 8.965,23.228l0,229.023Zm254.289,-54.607l66.832,-0l-0,293.41c-3.26,1.086 -7.607,2.309 -13.041,3.667c-5.433,1.359 -11.41,2.038 -17.93,2.038c-11.954,-0 -20.919,-2.445 -26.896,-7.335c-5.977,-4.891 -8.965,-12.497 -8.965,-22.821l-0,-268.959Zm66.832,54.607l-66.832,-0l-0,-253.474c2.716,-1.086 6.927,-2.309 12.633,-3.667c5.705,-1.359 11.817,-2.038 18.338,-2.038c11.953,0 20.919,2.309 26.896,6.928c5.976,4.618 8.965,12.361 8.965,23.228l-0,229.023Zm-31.786,17.115l-316.231,0l0,-55.422l316.231,0l-0,55.422Z" style="fill:#fff;fill-rule:nonzero;"/><path d="M656.097,555.099c-51.075,0 -90.604,-10.052 -118.587,-30.156c-27.982,-20.104 -41.974,-49.173 -41.974,-87.208c0,-35.318 11.818,-62.349 35.454,-81.095c23.636,-18.746 56.373,-30.02 98.211,-33.824l115.734,-11.41l-0,-22.821c-0,-27.167 -8.151,-47 -24.451,-59.497c-16.301,-12.497 -38.306,-18.745 -66.017,-18.745c-22.278,-0 -43.604,3.26 -63.98,9.78c-20.376,6.52 -38.442,13.855 -54.199,22.006c-4.347,-3.804 -8.286,-8.286 -11.818,-13.448c-3.532,-5.162 -5.298,-10.46 -5.298,-15.893c0,-14.127 7.879,-24.994 23.636,-32.601c14.671,-7.607 31.65,-13.448 50.939,-17.523c19.289,-4.076 39.801,-6.113 61.535,-6.113c47.271,-0 84.763,10.595 112.473,31.786c27.711,21.191 41.567,54.607 41.567,100.248l-0,193.162c-0,11.953 -2.309,21.055 -6.928,27.303c-4.618,6.249 -11.546,12.09 -20.783,17.523c-13.04,7.064 -30.428,13.584 -52.162,19.561c-21.734,5.977 -46.185,8.965 -73.352,8.965Zm-0,-53.792c22.821,0 41.702,-2.309 56.644,-6.927c14.942,-4.619 25.674,-9.102 32.194,-13.448l-0,-118.179l-101.064,10.595c-28.254,2.173 -49.173,8.422 -62.757,18.746c-13.583,10.323 -20.375,25.266 -20.375,44.826c-0,20.104 8.014,35.861 24.043,47.272c16.029,11.41 39.8,17.115 71.315,17.115Z" style="fill:#fff;fill-rule:nonzero;"/><path d="M1232.32,282.88l-0,93.728l-65.202,0l-0,-88.838c-0,-26.624 -7.743,-46.185 -23.229,-58.682c-15.485,-12.497 -35.997,-18.745 -61.534,-18.745c-16.844,-0 -33.144,2.716 -48.902,8.15c-15.757,5.433 -29.069,11.682 -39.936,18.746l-0,139.369l-65.202,0l-0,-136.109c-0,-10.867 2.309,-20.104 6.928,-27.711c4.618,-7.607 12.632,-14.942 24.043,-22.006c14.67,-9.237 33.28,-17.251 55.829,-24.043c22.549,-6.792 45.234,-10.188 68.055,-10.188c27.711,-0 52.162,4.211 73.352,12.633c21.191,8.422 36.948,19.968 47.272,34.638c3.26,3.261 5.977,6.249 8.15,8.966c2.174,2.716 4.347,6.248 6.52,10.595c3.804,6.52 7.064,14.942 9.781,25.266c2.717,10.324 4.075,21.734 4.075,34.231Zm238.803,1.63l-0,92.098l-65.202,0l-0,-88.838c-0,-26.624 -7.607,-46.185 -22.821,-58.682c-15.214,-12.497 -35.59,-18.745 -61.127,-18.745c-19.017,-0 -37.356,3.939 -55.014,11.818c-17.659,7.878 -33.552,19.153 -47.68,33.823l-26.08,-47.271c14.127,-14.128 32.601,-26.353 55.421,-36.677c22.821,-10.323 48.902,-15.485 78.243,-15.485c29.341,-0 54.743,4.618 76.205,13.855c21.462,9.237 38.171,23.364 50.124,42.382c11.954,19.017 17.931,42.924 17.931,71.722Zm-542.808,48.902l65.202,-0l-0,208.647c-2.717,1.086 -6.792,2.309 -12.225,3.667c-5.434,1.359 -11.411,2.038 -17.931,2.038c-11.41,-0 -20.104,-2.309 -26.081,-6.928c-5.977,-4.618 -8.965,-12.089 -8.965,-22.413l-0,-185.011Zm238.803,-0l65.202,-0l-0,208.647c-2.717,1.086 -6.928,2.309 -12.633,3.667c-5.705,1.359 -11.546,2.038 -17.523,2.038c-11.954,-0 -20.783,-2.309 -26.488,-6.928c-5.706,-4.618 -8.558,-12.089 -8.558,-22.413l-0,-185.011Zm238.803,-0l65.202,-0l-0,208.647c-2.717,1.086 -6.928,2.309 -12.633,3.667c-5.705,1.359 -11.546,2.038 -17.523,2.038c-11.954,-0 -20.783,-2.309 -26.489,-6.928c-5.705,-4.618 -8.557,-12.089 -8.557,-22.413l-0,-185.011Z" style="fill:#fff;fill-rule:nonzero;"/><path d="M1587.67,48.152c-0,-11.41 4.075,-21.055 12.225,-28.933c8.15,-7.879 18.202,-11.818 30.156,-11.818c12.497,-0 22.549,3.939 30.156,11.818c7.607,7.878 11.411,17.523 11.411,28.933c-0,11.411 -3.804,21.055 -11.411,28.934c-7.607,7.878 -17.659,11.818 -30.156,11.818c-11.954,-0 -22.006,-3.94 -30.156,-11.818c-8.15,-7.879 -12.225,-17.523 -12.225,-28.934Zm9.78,280.37l65.202,-0l0,213.537c-2.717,1.086 -6.792,2.309 -12.225,3.667c-5.434,1.359 -11.411,2.038 -17.931,2.038c-11.41,-0 -20.104,-2.309 -26.081,-6.928c-5.977,-4.618 -8.965,-12.089 -8.965,-22.413l0,-189.901Zm65.202,31.786l-65.202,-0l0,-191.532c2.717,-1.086 6.928,-2.309 12.633,-3.667c5.705,-1.359 11.818,-2.038 18.338,-2.038c11.41,0 19.968,2.309 25.673,6.928c5.706,4.618 8.558,12.361 8.558,23.228l0,167.081Z" style="fill:#fff;fill-rule:nonzero;"/><path d="M2055.5,443.44c0,34.775 -12.769,61.942 -38.306,81.503c-25.538,19.561 -62.485,29.341 -110.844,29.341c-41.294,0 -74.982,-6.384 -101.063,-19.153c-26.081,-12.769 -39.121,-26.76 -39.121,-41.974c-0,-6.52 1.766,-12.905 5.297,-19.153c3.532,-6.249 8.83,-11.275 15.893,-15.078c14.671,10.324 31.786,19.832 51.347,28.526c19.561,8.693 41.838,13.04 66.832,13.04c56.509,0 84.763,-19.017 84.763,-57.052c0,-15.757 -4.754,-28.661 -14.263,-38.713c-9.509,-10.052 -23.5,-17.252 -41.974,-21.599l-67.647,-17.93c-33.144,-8.15 -57.324,-20.783 -72.537,-37.899c-15.214,-17.116 -22.821,-38.442 -22.821,-63.98c-0,-28.797 11.682,-53.791 35.046,-74.982c23.364,-21.191 58.954,-31.786 106.769,-31.786c25.537,-0 47.814,2.581 66.832,7.743c19.017,5.161 33.823,11.953 44.419,20.375c10.595,8.422 15.893,17.523 15.893,27.304c-0,7.063 -1.766,13.312 -5.298,18.745c-3.532,5.434 -8.286,9.509 -14.263,12.226c-6.52,-4.347 -14.806,-9.101 -24.858,-14.263c-10.052,-5.162 -21.87,-9.509 -35.454,-13.041c-13.584,-3.531 -28.526,-5.297 -44.826,-5.297c-23.908,-0 -43.197,4.618 -57.867,13.855c-14.671,9.237 -22.006,22.278 -22.006,39.121c-0,11.954 4.211,22.414 12.633,31.379c8.422,8.965 21.87,15.621 40.344,19.968l56.237,13.856c36.947,8.693 64.658,22.413 83.132,41.158c18.474,18.746 27.711,43.333 27.711,73.76Z" style="fill:#fff;fill-rule:nonzero;"/><path d="M2480.94,381.498l-65.202,0l0,-74.982c0,-32.601 -9.101,-56.78 -27.303,-72.538c-18.202,-15.757 -41.702,-23.635 -70.5,-23.635c-21.191,-0 -40.887,4.075 -59.089,12.225c-18.203,8.15 -33.552,17.931 -46.05,29.341l-12.225,-52.977c13.04,-9.237 30.292,-18.61 51.754,-28.118c21.463,-9.509 46.321,-14.263 74.575,-14.263c45.098,-0 82.046,12.225 110.844,36.676c28.798,24.451 43.196,61.67 43.196,111.659l0,76.612Zm-325.195,-52.976l65.202,-0l-0,213.537c-2.717,1.086 -6.792,2.309 -12.226,3.667c-5.433,1.359 -11.41,2.038 -17.93,2.038c-11.411,-0 -20.104,-2.309 -26.081,-6.928c-5.977,-4.618 -8.965,-12.089 -8.965,-22.413l-0,-189.901Zm259.993,0.815l65.202,0.815l0,211.907c-2.716,1.086 -6.927,2.309 -12.633,3.667c-5.705,1.359 -11.546,2.038 -17.523,2.038c-11.953,-0 -20.783,-2.309 -26.488,-6.928c-5.705,-4.618 -8.558,-12.089 -8.558,-22.413l0,-189.086Zm-194.791,30.971l-65.202,-0l-0,-344.757c2.716,-1.087 6.927,-2.309 12.632,-3.667c5.706,-1.359 11.818,-2.038 18.339,-2.038c11.41,-0 19.968,2.309 25.673,6.928c5.705,4.618 8.558,12.089 8.558,22.413l-0,321.121Z" style="fill:#fff;fill-rule:nonzero;"/><path d="M2997.67,171.221c4.346,-2.173 9.78,-4.075 16.3,-5.705c6.52,-1.63 13.312,-2.445 20.376,-2.445c10.867,0 19.968,1.766 27.303,5.298c7.335,3.532 12.09,8.829 14.263,15.893c13.584,39.121 25.945,75.39 37.084,108.806c11.139,33.416 21.734,65.745 31.786,96.988c10.052,31.243 20.24,63.436 30.563,96.581l3.261,-0c10.323,-48.902 20.375,-96.581 30.156,-143.037c9.78,-46.457 19.289,-93.593 28.525,-141.408c9.237,-47.815 17.659,-98.89 25.266,-153.225c7.607,-3.803 16.844,-5.705 27.711,-5.705c10.324,0 18.474,2.309 24.451,6.928c5.977,4.618 8.965,11.546 8.965,20.783c0,10.324 -1.494,25.945 -4.482,46.864c-2.989,20.919 -7.064,45.37 -12.226,73.353c-5.162,27.982 -11.138,57.595 -17.93,88.837c-6.792,31.243 -13.992,62.486 -21.599,93.729c-7.606,31.242 -15.213,60.719 -22.82,88.43c-7.607,27.711 -14.942,51.89 -22.006,72.537c-4.89,2.717 -11.139,5.298 -18.746,7.743c-7.607,2.445 -16.3,3.668 -26.08,3.668c-11.954,-0 -22.006,-1.902 -30.156,-5.705c-8.151,-3.804 -13.584,-8.966 -16.301,-15.486c-7.607,-19.017 -16.844,-44.147 -27.711,-75.39c-10.867,-31.243 -22.142,-65.474 -33.824,-102.693c-11.682,-37.22 -22.956,-74.032 -33.823,-110.436c-10.324,35.861 -21.463,73.08 -33.416,111.658c-11.954,38.578 -23.5,74.439 -34.639,107.584c-11.139,33.144 -21.055,59.768 -29.748,79.872c-3.804,2.174 -9.645,4.483 -17.524,6.928c-7.878,2.445 -16.708,3.668 -26.488,3.668c-11.954,-0 -21.87,-2.038 -29.748,-6.113c-7.879,-4.075 -13.177,-9.101 -15.893,-15.078c-5.434,-13.584 -12.09,-33.959 -19.969,-61.127c-7.878,-27.168 -16.164,-58.274 -24.858,-93.321c-8.694,-35.046 -17.251,-71.45 -25.673,-109.213c-8.422,-37.763 -16.301,-74.168 -23.636,-109.214c-7.335,-35.046 -13.176,-66.153 -17.523,-93.32c3.803,-3.804 8.965,-7.336 15.485,-10.596c6.521,-3.26 13.584,-4.89 21.191,-4.89c9.78,0 17.387,2.309 22.821,6.928c5.433,4.618 9.237,12.361 11.41,23.228c7.064,34.231 13.856,67.376 20.376,99.433c6.52,32.058 13.176,64.388 19.968,96.989c6.792,32.601 13.991,66.696 21.598,102.286c7.607,35.589 16.029,73.759 25.266,114.511l3.26,-0c7.607,-24.451 14.942,-47.815 22.006,-70.093c7.064,-22.277 14.399,-45.234 22.006,-68.869c7.607,-23.636 15.893,-49.581 24.858,-77.835c8.965,-28.255 19.153,-61.127 30.564,-98.619Z" style="fill:#fff;fill-rule:nonzero;"/><path d="M3436.15,396.984l-3.26,-51.347l246.138,-33.416c-2.173,-29.884 -12.497,-54.471 -30.971,-73.76c-18.474,-19.289 -44.011,-28.933 -76.612,-28.933c-33.688,-0 -61.535,12.089 -83.541,36.268c-22.005,24.179 -33.008,58.818 -33.008,103.916l-0,17.931c3.803,43.468 18.066,76.477 42.789,99.026c24.722,22.549 58.546,33.823 101.471,33.823c22.82,0 43.468,-3.803 61.942,-11.41c18.474,-7.607 33.144,-15.757 44.011,-24.451c5.977,3.804 10.731,8.286 14.263,13.448c3.532,5.162 5.298,11.003 5.298,17.523c-0,10.324 -5.841,19.968 -17.523,28.934c-11.682,8.965 -27.168,16.164 -46.457,21.598c-19.289,5.433 -40.887,8.15 -64.795,8.15c-41.838,0 -78.106,-7.607 -108.806,-22.821c-30.699,-15.214 -54.335,-37.898 -70.907,-68.054c-16.572,-30.156 -24.858,-66.969 -24.858,-110.437c-0,-30.971 4.482,-58.546 13.448,-82.725c8.965,-24.179 21.462,-44.691 37.491,-61.534c16.029,-16.844 35.182,-29.749 57.459,-38.714c22.278,-8.965 46.457,-13.448 72.538,-13.448c33.144,-0 62.349,7.063 87.615,21.191c25.266,14.127 45.098,33.823 59.497,59.089c14.399,25.266 21.598,54.199 21.598,86.8c0,11.954 -2.717,20.512 -8.15,25.674c-5.434,5.162 -13.04,8.286 -22.821,9.373l-273.849,38.306Z" style="fill:#fff;fill-rule:nonzero;"/><path d="M3829.81,48.152c0,-11.41 4.075,-21.055 12.226,-28.933c8.15,-7.879 18.202,-11.818 30.156,-11.818c12.497,-0 22.549,3.939 30.156,11.818c7.606,7.878 11.41,17.523 11.41,28.933c-0,11.411 -3.804,21.055 -11.41,28.934c-7.607,7.878 -17.659,11.818 -30.156,11.818c-11.954,-0 -22.006,-3.94 -30.156,-11.818c-8.151,-7.879 -12.226,-17.523 -12.226,-28.934Zm9.78,280.37l65.203,-0l-0,213.537c-2.717,1.086 -6.792,2.309 -12.226,3.667c-5.433,1.359 -11.41,2.038 -17.93,2.038c-11.411,-0 -20.104,-2.309 -26.081,-6.928c-5.977,-4.618 -8.966,-12.089 -8.966,-22.413l0,-189.901Zm65.203,31.786l-65.203,-0l0,-191.532c2.717,-1.086 6.928,-2.309 12.633,-3.667c5.706,-1.359 11.818,-2.038 18.339,-2.038c11.41,0 19.968,2.309 25.673,6.928c5.705,4.618 8.558,12.361 8.558,23.228l-0,167.081Z" style="fill:#fff;fill-rule:nonzero;"/><path d="M4097.14,237.239l0,128.774l-65.202,-0l-0,-123.884c-0,-12.497 2.309,-22.414 6.928,-29.749c4.618,-7.335 12.361,-14.534 23.228,-21.598c14.127,-9.237 33.416,-17.251 57.867,-24.043c24.451,-6.792 51.618,-10.188 81.503,-10.188c43.468,-0 65.202,10.867 65.202,32.601c-0,5.433 -0.815,10.459 -2.445,15.078c-1.63,4.618 -3.804,8.558 -6.521,11.818c-5.433,-1.087 -12.497,-2.174 -21.19,-3.26c-8.694,-1.087 -17.388,-1.63 -26.081,-1.63c-24.994,-0 -47,2.581 -66.017,7.742c-19.018,5.162 -34.775,11.275 -47.272,18.339Zm-65.202,91.283l65.202,9.78l0,203.757c-2.717,1.086 -6.792,2.309 -12.225,3.667c-5.434,1.359 -11.411,2.038 -17.931,2.038c-11.41,-0 -20.104,-2.309 -26.081,-6.928c-5.977,-4.618 -8.965,-12.089 -8.965,-22.413l-0,-189.901Z" style="fill:#fff;fill-rule:nonzero;"/><path d="M103.242,702.631c22.226,-0 42.211,4.75 59.956,14.249c17.745,9.5 31.725,23.929 41.942,43.287c10.217,19.358 15.325,43.913 15.325,73.667c-0,30.112 -5.288,54.848 -15.863,74.205c-10.575,19.358 -25.183,33.698 -43.824,43.018c-18.641,9.32 -40.329,13.981 -65.064,13.981c-17.565,-0 -33.428,-2.151 -47.588,-6.453c-14.16,-4.302 -25.721,-8.962 -34.683,-13.981c-7.528,-5.018 -12.726,-9.679 -15.594,-13.98c-2.868,-4.302 -4.302,-10.217 -4.302,-17.745l0,-179.061l43.018,0l-0,179.061c5.377,3.943 13.264,7.707 23.66,11.292c10.395,3.585 22.225,5.377 35.489,5.377c24.377,0 44.003,-7.707 58.88,-23.122c14.877,-15.414 22.316,-39.612 22.316,-72.592c-0,-33.338 -7.528,-57.625 -22.585,-72.861c-15.056,-15.235 -34.234,-22.853 -57.536,-22.853c-14.339,0 -27.065,2.778 -38.178,8.335c-11.112,5.556 -20.254,11.919 -27.423,19.089l-8.066,-34.952c7.886,-6.094 18.462,-12.278 31.725,-18.551c13.264,-6.274 29.396,-9.41 48.395,-9.41Zm-66.677,39.791l-43.018,-0l0,-132.817c1.793,-0.717 4.571,-1.523 8.335,-2.419c3.764,-0.897 7.797,-1.345 12.099,-1.345c7.528,0 13.174,1.524 16.938,4.571c3.764,3.047 5.646,7.976 5.646,14.787l-0,117.223Z" style="fill:#fff;fill-opacity:0.7;fill-rule:nonzero;"/><path d="M291.982,816.089l43.017,6.453l0,134.43c-1.792,0.717 -4.481,1.523 -8.066,2.42c-3.584,0.896 -7.528,1.344 -11.829,1.344c-7.529,-0 -13.264,-1.524 -17.208,-4.571c-3.943,-3.047 -5.914,-7.976 -5.914,-14.787l-0,-125.289Zm43.017,26.886l-43.017,-5.914l-0,-227.456c1.792,-0.717 4.57,-1.523 8.334,-2.419c3.764,-0.897 7.618,-1.345 11.561,-1.345c7.887,0 13.712,1.524 17.476,4.571c3.764,3.047 5.646,7.976 5.646,14.787l0,217.776Z" style="fill:#fff;fill-opacity:0.7;fill-rule:nonzero;"/><path d="M650.64,833.834c0,26.528 -5.018,49.65 -15.056,69.366c-10.037,19.716 -24.197,34.952 -42.48,45.706c-18.282,10.755 -39.791,16.132 -64.526,16.132c-24.735,-0 -46.333,-5.377 -64.795,-16.132c-18.462,-10.754 -32.711,-25.99 -42.749,-45.706c-10.037,-19.716 -15.056,-42.838 -15.056,-69.366c0,-26.886 5.108,-50.097 15.325,-69.634c10.217,-19.538 24.556,-34.683 43.018,-45.438c18.461,-10.754 39.88,-16.131 64.257,-16.131c24.377,-0 45.706,5.377 63.989,16.131c18.282,10.755 32.532,25.9 42.748,45.438c10.217,19.537 15.325,42.748 15.325,69.634Zm-122.062,-95.714c-24.018,0 -43.107,8.514 -57.267,25.542c-14.16,17.028 -21.24,40.418 -21.24,70.172c0,30.112 6.901,53.593 20.702,70.441c13.802,16.849 33.07,25.273 57.805,25.273c24.377,0 43.466,-8.514 57.267,-25.541c13.802,-17.028 20.702,-40.419 20.702,-70.173c0,-29.754 -6.9,-53.144 -20.702,-70.172c-13.801,-17.028 -32.89,-25.542 -57.267,-25.542Z" style="fill:#fff;fill-opacity:0.7;fill-rule:nonzero;"/><path d="M820.56,950.519c-20.792,0 -39.971,-4.033 -57.536,-12.098c-17.566,-8.066 -31.726,-21.24 -42.48,-39.523c-10.755,-18.282 -16.132,-42.48 -16.132,-72.592c0,-27.244 5.288,-50.008 15.863,-68.29c10.575,-18.283 25.183,-32.084 43.824,-41.405c18.641,-9.32 39.971,-13.98 63.989,-13.98c16.49,-0 31.636,2.061 45.437,6.183c13.801,4.123 25.362,9.231 34.683,15.325c5.377,3.585 9.768,7.618 13.174,12.099c3.406,4.481 5.108,9.948 5.108,16.401l0,166.155l-43.017,-0l-0,-165.618c-6.094,-3.943 -13.712,-7.438 -22.853,-10.485c-9.141,-3.047 -19.985,-4.571 -32.532,-4.571c-24.018,0 -43.376,7.349 -58.074,22.047c-14.698,14.697 -22.046,36.565 -22.046,65.601c-0,32.264 7.438,55.206 22.315,68.828c14.877,13.623 33.249,20.434 55.116,20.434c15.773,-0 28.499,-2.689 38.178,-8.066c9.679,-5.377 17.386,-11.292 23.122,-17.745l2.151,38.178c-5.377,5.736 -13.891,11.024 -25.542,15.863c-11.65,4.84 -25.9,7.259 -42.748,7.259Zm62.913,15.594l-0,-56.46l43.017,-0l0,59.149c0,23.659 -5.108,42.659 -15.325,56.998c-10.216,14.339 -24.197,24.735 -41.942,31.188c-17.744,6.452 -37.73,9.679 -59.955,9.679c-17.924,-0 -33.339,-1.972 -46.244,-5.915c-12.906,-3.944 -21.688,-7.17 -26.349,-9.679c-10.754,-6.094 -16.131,-13.802 -16.131,-23.122c-0,-5.019 1.165,-9.231 3.495,-12.637c2.33,-3.405 5.288,-6.004 8.872,-7.796c7.528,5.735 18.193,11.023 31.995,15.862c13.801,4.84 28.588,7.259 44.362,7.259c24.018,0 42.39,-5.197 55.116,-15.593c12.726,-10.396 19.089,-26.707 19.089,-48.933Z" style="fill:#fff;fill-opacity:0.7;fill-rule:nonzero;"/><path d="M974.347,935.463c0,-8.603 2.599,-15.773 7.797,-21.509c5.198,-5.735 12.457,-8.603 21.778,-8.603c9.32,-0 16.49,2.868 21.509,8.603c5.018,5.736 7.528,12.906 7.528,21.509c-0,8.245 -2.51,15.236 -7.528,20.971c-5.019,5.736 -12.189,8.604 -21.509,8.604c-9.321,-0 -16.58,-2.868 -21.778,-8.604c-5.198,-5.735 -7.797,-12.726 -7.797,-20.971Z" style="fill:#fff;fill-opacity:0.7;fill-rule:nonzero;"/></g></svg>